<?xml version="1.0" encoding="UTF-8" standalone="no"?>
<!-- Created with Inkscape (http://www.inkscape.org/) -->

<svg
   width="373.33334mm"
   height="210mm"
   viewBox="0 0 373.33334 210"
   version="1.1"
   id="svg1"
   inkscape:version="1.3.2 (091e20ef0f, 2023-11-25, custom)"
   sodipodi:docname="gears.svg"
   inkscape:export-filename="gears.png"
   inkscape:export-xdpi="261.25714"
   inkscape:export-ydpi="261.25714"
   xmlns:inkscape="http://www.inkscape.org/namespaces/inkscape"
   xmlns:sodipodi="http://sodipodi.sourceforge.net/DTD/sodipodi-0.dtd"
   xmlns="http://www.w3.org/2000/svg"
   xmlns:svg="http://www.w3.org/2000/svg">
  <sodipodi:namedview
     id="namedview1"
     pagecolor="#ffffff"
     bordercolor="#000000"
     borderopacity="0.25"
     inkscape:showpageshadow="2"
     inkscape:pageopacity="0.0"
     inkscape:pagecheckerboard="0"
     inkscape:deskcolor="#d1d1d1"
     inkscape:document-units="mm"
     inkscape:zoom="0.5"
     inkscape:cx="678"
     inkscape:cy="336"
     inkscape:window-width="1872"
     inkscape:window-height="992"
     inkscape:window-x="0"
     inkscape:window-y="0"
     inkscape:window-maximized="1"
     inkscape:current-layer="layer2" />
  <defs
     id="defs1">
    <linearGradient
       id="swatch19"
       inkscape:swatch="solid">
      <stop
         style="stop-color:#073642;stop-opacity:1;"
         offset="0"
         id="stop19" />
    </linearGradient>
    <inkscape:path-effect
       effect="fillet_chamfer"
       id="path-effect14"
       is_visible="true"
       lpeversion="1"
       nodesatellites_param="F,0,0,1,0,0,0,1 @ F,0,0,1,0,1.2715248,0,1 @ F,0,0,1,0,0,0,1 @ F,0,1,1,0,1.2715248,0,1 @ F,0,0,1,0,0,0,1 @ F,0,1,1,0,1.2715248,0,1 @ F,0,0,1,0,0,0,1 @ F,0,1,1,0,1.2715248,0,1 @ F,0,0,1,0,0,0,1 @ F,0,1,1,0,1.2715248,0,1 @ F,0,0,1,0,0,0,1 @ F,0,1,1,0,1.2715248,0,1 @ F,0,0,1,0,0,0,1 | F,0,0,1,0,0,0,1 @ F,0,0,1,0,0,0,1 @ F,0,0,1,0,0,0,1 @ F,0,0,1,0,0,0,1"
       radius="0"
       unit="px"
       method="auto"
       mode="F"
       chamfer_steps="1"
       flexible="false"
       use_knot_distance="true"
       apply_no_radius="true"
       apply_with_radius="true"
       only_selected="false"
       hide_knots="false" />
    <inkscape:path-effect
       effect="fillet_chamfer"
       id="path-effect12"
       is_visible="true"
       lpeversion="1"
       nodesatellites_param="F,0,0,1,0,0,0,1 @ F,0,0,1,0,1.2715248,0,1 @ F,0,0,1,0,0,0,1 @ F,0,1,1,0,1.2715248,0,1 @ F,0,0,1,0,0,0,1 @ F,0,1,1,0,1.2715248,0,1 @ F,0,0,1,0,0,0,1 @ F,0,1,1,0,1.2715248,0,1 @ F,0,0,1,0,0,0,1 @ F,0,1,1,0,1.2715248,0,1 @ F,0,0,1,0,0,0,1 @ F,0,1,1,0,1.2715248,0,1 @ F,0,0,1,0,0,0,1 | F,0,0,1,0,0,0,1 @ F,0,0,1,0,0,0,1 @ F,0,0,1,0,0,0,1 @ F,0,0,1,0,0,0,1"
       radius="0"
       unit="px"
       method="auto"
       mode="F"
       chamfer_steps="1"
       flexible="false"
       use_knot_distance="true"
       apply_no_radius="true"
       apply_with_radius="true"
       only_selected="false"
       hide_knots="false" />
    <inkscape:path-effect
       effect="fillet_chamfer"
       id="path-effect10"
       is_visible="true"
       lpeversion="1"
       nodesatellites_param="F,0,0,1,0,0,0,1 @ F,0,0,1,0,1.2715248,0,1 @ F,0,0,1,0,0,0,1 @ F,0,1,1,0,1.2715248,0,1 @ F,0,0,1,0,0,0,1 @ F,0,1,1,0,1.2715248,0,1 @ F,0,0,1,0,0,0,1 @ F,0,1,1,0,1.2715248,0,1 @ F,0,0,1,0,0,0,1 @ F,0,1,1,0,1.2715248,0,1 @ F,0,0,1,0,0,0,1 @ F,0,1,1,0,1.2715248,0,1 @ F,0,0,1,0,0,0,1 | F,0,0,1,0,0,0,1 @ F,0,0,1,0,0,0,1 @ F,0,0,1,0,0,0,1 @ F,0,0,1,0,0,0,1"
       radius="0"
       unit="px"
       method="auto"
       mode="F"
       chamfer_steps="1"
       flexible="false"
       use_knot_distance="true"
       apply_no_radius="true"
       apply_with_radius="true"
       only_selected="false"
       hide_knots="false" />
    <inkscape:path-effect
       effect="fillet_chamfer"
       id="path-effect8"
       is_visible="true"
       lpeversion="1"
       nodesatellites_param="F,0,0,1,0,0,0,1 @ F,0,0,1,0,1.2715248,0,1 @ F,0,0,1,0,0,0,1 @ F,0,1,1,0,1.2715248,0,1 @ F,0,0,1,0,0,0,1 @ F,0,1,1,0,1.2715248,0,1 @ F,0,0,1,0,0,0,1 @ F,0,1,1,0,1.2715248,0,1 @ F,0,0,1,0,0,0,1 @ F,0,1,1,0,1.2715248,0,1 @ F,0,0,1,0,0,0,1 @ F,0,1,1,0,1.2715248,0,1 @ F,0,0,1,0,0,0,1 | F,0,0,1,0,0,0,1 @ F,0,0,1,0,0,0,1 @ F,0,0,1,0,0,0,1 @ F,0,0,1,0,0,0,1"
       radius="0"
       unit="px"
       method="auto"
       mode="F"
       chamfer_steps="1"
       flexible="false"
       use_knot_distance="true"
       apply_no_radius="true"
       apply_with_radius="true"
       only_selected="false"
       hide_knots="false" />
    <inkscape:path-effect
       effect="fillet_chamfer"
       id="path-effect6"
       is_visible="true"
       lpeversion="1"
       nodesatellites_param="F,0,0,1,0,0,0,1 @ F,0,0,1,0,1.2715248,0,1 @ F,0,0,1,0,0,0,1 @ F,0,1,1,0,1.2715248,0,1 @ F,0,0,1,0,0,0,1 @ F,0,1,1,0,1.2715248,0,1 @ F,0,0,1,0,0,0,1 @ F,0,1,1,0,1.2715248,0,1 @ F,0,0,1,0,0,0,1 @ F,0,1,1,0,1.2715248,0,1 @ F,0,0,1,0,0,0,1 @ F,0,1,1,0,1.2715248,0,1 @ F,0,0,1,0,0,0,1 | F,0,0,1,0,0,0,1 @ F,0,0,1,0,0,0,1 @ F,0,0,1,0,0,0,1 @ F,0,0,1,0,0,0,1"
       radius="0"
       unit="px"
       method="auto"
       mode="F"
       chamfer_steps="1"
       flexible="false"
       use_knot_distance="true"
       apply_no_radius="true"
       apply_with_radius="true"
       only_selected="false"
       hide_knots="false" />
    <inkscape:path-effect
       effect="fillet_chamfer"
       id="path-effect4"
       is_visible="true"
       lpeversion="1"
       nodesatellites_param="F,0,0,1,0,0,0,1 @ F,0,0,1,0,1.2715248,0,1 @ F,0,0,1,0,0,0,1 @ F,0,1,1,0,1.2715248,0,1 @ F,0,0,1,0,0,0,1 @ F,0,1,1,0,1.2715248,0,1 @ F,0,0,1,0,0,0,1 @ F,0,1,1,0,1.2715248,0,1 @ F,0,0,1,0,0,0,1 @ F,0,1,1,0,1.2715248,0,1 @ F,0,0,1,0,0,0,1 @ F,0,1,1,0,1.2715248,0,1 @ F,0,0,1,0,0,0,1 | F,0,0,1,0,0,0,1 @ F,0,0,1,0,0,0,1 @ F,0,0,1,0,0,0,1 @ F,0,0,1,0,0,0,1"
       radius="0"
       unit="px"
       method="auto"
       mode="F"
       chamfer_steps="1"
       flexible="false"
       use_knot_distance="true"
       apply_no_radius="true"
       apply_with_radius="true"
       only_selected="false"
       hide_knots="false" />
    <inkscape:path-effect
       effect="fillet_chamfer"
       id="path-effect2"
       is_visible="true"
       lpeversion="1"
       nodesatellites_param="F,0,0,1,0,0,0,1 @ F,0,0,1,0,1.2715248,0,1 @ F,0,0,1,0,0,0,1 @ F,0,1,1,0,1.2715248,0,1 @ F,0,0,1,0,0,0,1 @ F,0,1,1,0,1.2715248,0,1 @ F,0,0,1,0,0,0,1 @ F,0,1,1,0,1.2715248,0,1 @ F,0,0,1,0,0,0,1 @ F,0,1,1,0,1.2715248,0,1 @ F,0,0,1,0,0,0,1 @ F,0,1,1,0,1.2715248,0,1 @ F,0,0,1,0,0,0,1 | F,0,0,1,0,0,0,1 @ F,0,0,1,0,0,0,1 @ F,0,0,1,0,0,0,1 @ F,0,0,1,0,0,0,1"
       radius="0"
       unit="px"
       method="auto"
       mode="F"
       chamfer_steps="1"
       flexible="false"
       use_knot_distance="true"
       apply_no_radius="true"
       apply_with_radius="true"
       only_selected="false"
       hide_knots="false" />
  </defs>
  <g
     inkscape:label="Backdrop"
     inkscape:groupmode="layer"
     id="layer1">
    <rect
       style="fill:#343f44;fill-opacity:1;stroke-width:1.4222"
       id="rect1"
       width="373.33334"
       height="210"
       x="5.3290705e-15"
       y="1.7763568e-15" />
  </g>
  <g
     inkscape:groupmode="layer"
     id="layer2"
     inkscape:label="Contents">
    <g
       id="g30"
       inkscape:label="gears"
       transform="translate(-1.2402653,0.63386522)">
      <path
         id="path1"
         style="font-variation-settings:normal;opacity:1;vector-effect:none;fill:#7fbbb3;fill-opacity:1;stroke:#252c32;stroke-width:1.82243;stroke-linecap:butt;stroke-linejoin:miter;stroke-miterlimit:4;stroke-dasharray:none;stroke-dashoffset:0;stroke-opacity:1;-inkscape-stroke:none;paint-order:normal;stop-color:#000000;stop-opacity:1"
         d="m 66.898242,11.498006 c -7.428553,0.358688 -4.805769,13.406663 -13.627153,16.90987 -0.652162,0.258991 -1.756371,0.554867 -2.450798,0.656658 -10.4043,1.525079 -14.500907,-14.119347 -22.48817,-6.132084 -7.987317,7.987318 7.657372,12.084404 6.132052,22.488894 -0.101787,0.694312 -0.397662,1.798544 -0.656723,2.45083 -3.881402,9.77292 -19.478297,5.49837 -16.554756,16.409174 2.923561,10.910877 14.294046,-0.58916 22.541937,5.934059 0.550397,0.435307 1.358753,1.243658 1.794119,1.794155 6.522898,8.24784 -4.97739,19.617716 5.933414,22.541256 10.910878,2.92356 6.636675,-12.673563 16.409884,-16.554835 0.652185,-0.259004 1.756416,-0.554885 2.450843,-0.656676 10.4043,-1.525079 14.500907,14.119347 22.48817,6.132084 7.987316,-7.987316 -7.657369,-12.083924 -6.132053,-22.488377 0.101788,-0.694312 0.397663,-1.798544 0.656723,-2.45083 3.881401,-9.772959 19.478299,-5.498886 16.554757,-16.409691 -2.923561,-10.910877 -14.294046,0.589638 -22.541936,-5.933544 -0.550398,-0.435305 -1.358754,-1.243656 -1.794119,-1.794154 -6.5229,-8.247876 4.97739,-19.61823 -5.933415,-22.541772 -1.062704,-0.28475 -1.981172,-0.393722 -2.782776,-0.355017 z m -8.296651,30.445687 c 6.217733,3.6e-5 11.258192,5.040495 11.258228,11.258228 -3.6e-5,6.217732 -5.040496,11.258191 -11.258228,11.258227 -6.217732,-3.6e-5 -11.258192,-5.040495 -11.258228,-11.258227 3.6e-5,-6.217733 5.040495,-11.258192 11.258228,-11.258228 z"
         inkscape:path-effect="#path-effect2"
         inkscape:original-d="m 66.898242,11.498006 c -7.74884,0.374153 -4.560917,14.555398 -14.83372,17.307988 -11.335506,3.037339 -15.434235,-14.17171 -23.732401,-5.873544 -8.298167,8.298168 8.910883,12.397412 5.873543,23.732919 -3.03734,11.335506 -19.99031,6.280473 -16.95297,17.615979 3.03734,11.335506 15.191872,-1.518219 23.490039,6.779948 8.298166,8.298166 -4.556075,20.452183 6.779431,23.489522 11.335507,3.037339 6.280989,-13.915631 17.616496,-16.952971 11.335506,-3.037339 15.434235,14.17171 23.732401,5.873544 8.298167,-8.298167 -8.910883,-12.396895 -5.873543,-23.732402 3.03734,-11.335506 19.990312,-6.28099 16.95297,-17.616496 -3.03734,-11.335506 -15.191872,1.518736 -23.490039,-6.779431 -8.298166,-8.298166 4.556075,-20.452699 -6.779431,-23.490039 -1.062704,-0.28475 -1.981172,-0.393722 -2.782776,-0.355017 z M 58.601591,41.943693 A 11.258293,11.258293 0 0 1 69.859819,53.201921 11.258293,11.258293 0 0 1 58.601591,64.460148 11.258293,11.258293 0 0 1 47.343363,53.201921 11.258293,11.258293 0 0 1 58.601591,41.943693 Z"
         transform="rotate(17.396042,73.660754,92.095296)" />
      <path
         id="path2"
         style="fill:#a7c080;fill-opacity:1;stroke:#252c32;stroke-opacity:1;paint-order:normal"
         d="m 66.898242,11.498006 c -7.428553,0.358688 -4.805769,13.406663 -13.627153,16.90987 -0.652162,0.258991 -1.756371,0.554867 -2.450798,0.656658 -10.4043,1.525079 -14.500907,-14.119347 -22.48817,-6.132084 -7.987317,7.987318 7.657372,12.084404 6.132052,22.488894 -0.101787,0.694312 -0.397662,1.798544 -0.656723,2.45083 -3.881402,9.77292 -19.478297,5.49837 -16.554756,16.409174 2.923561,10.910877 14.294046,-0.58916 22.541937,5.934059 0.550397,0.435307 1.358753,1.243658 1.794119,1.794155 6.522898,8.24784 -4.97739,19.617716 5.933414,22.541256 10.910878,2.92356 6.636675,-12.673563 16.409884,-16.554835 0.652185,-0.259004 1.756416,-0.554885 2.450843,-0.656676 10.4043,-1.525079 14.500907,14.119347 22.48817,6.132084 7.987316,-7.987316 -7.657369,-12.083924 -6.132053,-22.488377 0.101788,-0.694312 0.397663,-1.798544 0.656723,-2.45083 3.881401,-9.772959 19.478299,-5.498886 16.554757,-16.409691 -2.923561,-10.910877 -14.294046,0.589638 -22.541936,-5.933544 -0.550398,-0.435305 -1.358754,-1.243656 -1.794119,-1.794154 -6.5229,-8.247876 4.97739,-19.61823 -5.933415,-22.541772 -1.062704,-0.28475 -1.981172,-0.393722 -2.782776,-0.355017 z m -8.296651,30.445687 c 6.217733,3.6e-5 11.258192,5.040495 11.258228,11.258228 -3.6e-5,6.217732 -5.040496,11.258191 -11.258228,11.258227 -6.217732,-3.6e-5 -11.258192,-5.040495 -11.258228,-11.258227 3.6e-5,-6.217733 5.040495,-11.258192 11.258228,-11.258228 z"
         inkscape:path-effect="#path-effect4"
         inkscape:original-d="m 66.898242,11.498006 c -7.74884,0.374153 -4.560917,14.555398 -14.83372,17.307988 -11.335506,3.037339 -15.434235,-14.17171 -23.732401,-5.873544 -8.298167,8.298168 8.910883,12.397412 5.873543,23.732919 -3.03734,11.335506 -19.99031,6.280473 -16.95297,17.615979 3.03734,11.335506 15.191872,-1.518219 23.490039,6.779948 8.298166,8.298166 -4.556075,20.452183 6.779431,23.489522 11.335507,3.037339 6.280989,-13.915631 17.616496,-16.952971 11.335506,-3.037339 15.434235,14.17171 23.732401,5.873544 8.298167,-8.298167 -8.910883,-12.396895 -5.873543,-23.732402 3.03734,-11.335506 19.990312,-6.28099 16.95297,-17.616496 -3.03734,-11.335506 -15.191872,1.518736 -23.490039,-6.779431 -8.298166,-8.298166 4.556075,-20.452699 -6.779431,-23.490039 -1.062704,-0.28475 -1.981172,-0.393722 -2.782776,-0.355017 z M 58.601591,41.943693 A 11.258293,11.258293 0 0 1 69.859819,53.201921 11.258293,11.258293 0 0 1 58.601591,64.460148 11.258293,11.258293 0 0 1 47.343363,53.201921 11.258293,11.258293 0 0 1 58.601591,41.943693 Z"
         transform="matrix(1.822426,0,0,1.822426,47.982464,24.251111)" />
      <path
         id="path4"
         style="font-variation-settings:normal;opacity:1;vector-effect:none;fill:#e69875;fill-opacity:1;stroke:#252c32;stroke-width:1.82243;stroke-linecap:butt;stroke-linejoin:miter;stroke-miterlimit:4;stroke-dasharray:none;stroke-dashoffset:0;stroke-opacity:1;-inkscape-stroke:none;paint-order:normal;stop-color:#000000;stop-opacity:1"
         d="m 66.898242,11.498006 c -7.428553,0.358688 -4.805769,13.406663 -13.627153,16.90987 -0.652162,0.258991 -1.756371,0.554867 -2.450798,0.656658 -10.4043,1.525079 -14.500907,-14.119347 -22.48817,-6.132084 -7.987317,7.987318 7.657372,12.084404 6.132052,22.488894 -0.101787,0.694312 -0.397662,1.798544 -0.656723,2.45083 -3.881402,9.77292 -19.478297,5.49837 -16.554756,16.409174 2.923561,10.910877 14.294046,-0.58916 22.541937,5.934059 0.550397,0.435307 1.358753,1.243658 1.794119,1.794155 6.522898,8.24784 -4.97739,19.617716 5.933414,22.541256 10.910878,2.92356 6.636675,-12.673563 16.409884,-16.554835 0.652185,-0.259004 1.756416,-0.554885 2.450843,-0.656676 10.4043,-1.525079 14.500907,14.119347 22.48817,6.132084 7.987316,-7.987316 -7.657369,-12.083924 -6.132053,-22.488377 0.101788,-0.694312 0.397663,-1.798544 0.656723,-2.45083 3.881401,-9.772959 19.478299,-5.498886 16.554757,-16.409691 -2.923561,-10.910877 -14.294046,0.589638 -22.541936,-5.933544 -0.550398,-0.435305 -1.358754,-1.243656 -1.794119,-1.794154 -6.5229,-8.247876 4.97739,-19.61823 -5.933415,-22.541772 -1.062704,-0.28475 -1.981172,-0.393722 -2.782776,-0.355017 z m -8.296651,30.445687 c 6.217733,3.6e-5 11.258192,5.040495 11.258228,11.258228 -3.6e-5,6.217732 -5.040496,11.258191 -11.258228,11.258227 -6.217732,-3.6e-5 -11.258192,-5.040495 -11.258228,-11.258227 3.6e-5,-6.217733 5.040495,-11.258192 11.258228,-11.258228 z"
         inkscape:path-effect="#path-effect6"
         inkscape:original-d="m 66.898242,11.498006 c -7.74884,0.374153 -4.560917,14.555398 -14.83372,17.307988 -11.335506,3.037339 -15.434235,-14.17171 -23.732401,-5.873544 -8.298167,8.298168 8.910883,12.397412 5.873543,23.732919 -3.03734,11.335506 -19.99031,6.280473 -16.95297,17.615979 3.03734,11.335506 15.191872,-1.518219 23.490039,6.779948 8.298166,8.298166 -4.556075,20.452183 6.779431,23.489522 11.335507,3.037339 6.280989,-13.915631 17.616496,-16.952971 11.335506,-3.037339 15.434235,14.17171 23.732401,5.873544 8.298167,-8.298167 -8.910883,-12.396895 -5.873543,-23.732402 3.03734,-11.335506 19.990312,-6.28099 16.95297,-17.616496 -3.03734,-11.335506 -15.191872,1.518736 -23.490039,-6.779431 -8.298166,-8.298166 4.556075,-20.452699 -6.779431,-23.490039 -1.062704,-0.28475 -1.981172,-0.393722 -2.782776,-0.355017 z M 58.601591,41.943693 A 11.258293,11.258293 0 0 1 69.859819,53.201921 11.258293,11.258293 0 0 1 58.601591,64.460148 11.258293,11.258293 0 0 1 47.343363,53.201921 11.258293,11.258293 0 0 1 58.601591,41.943693 Z"
         transform="rotate(-15.852059,340.42363,-657.03165)" />
      <path
         id="path6"
         style="font-variation-settings:normal;opacity:1;vector-effect:none;fill:#e69875;fill-opacity:1;stroke:#252c32;stroke-width:2.62871;stroke-linecap:butt;stroke-linejoin:miter;stroke-miterlimit:4;stroke-dasharray:none;stroke-dashoffset:0;stroke-opacity:1;-inkscape-stroke:none;paint-order:normal;stop-color:#000000;stop-opacity:1"
         d="m 66.898242,11.498006 c -7.428553,0.358688 -4.805769,13.406663 -13.627153,16.90987 -0.652162,0.258991 -1.756371,0.554867 -2.450798,0.656658 -10.4043,1.525079 -14.500907,-14.119347 -22.48817,-6.132084 -7.987317,7.987318 7.657372,12.084404 6.132052,22.488894 -0.101787,0.694312 -0.397662,1.798544 -0.656723,2.45083 -3.881402,9.77292 -19.478297,5.49837 -16.554756,16.409174 2.923561,10.910877 14.294046,-0.58916 22.541937,5.934059 0.550397,0.435307 1.358753,1.243658 1.794119,1.794155 6.522898,8.24784 -4.97739,19.617716 5.933414,22.541256 10.910878,2.92356 6.636675,-12.673563 16.409884,-16.554835 0.652185,-0.259004 1.756416,-0.554885 2.450843,-0.656676 10.4043,-1.525079 14.500907,14.119347 22.48817,6.132084 7.987316,-7.987316 -7.657369,-12.083924 -6.132053,-22.488377 0.101788,-0.694312 0.397663,-1.798544 0.656723,-2.45083 3.881401,-9.772959 19.478299,-5.498886 16.554757,-16.409691 -2.923561,-10.910877 -14.294046,0.589638 -22.541936,-5.933544 -0.550398,-0.435305 -1.358754,-1.243656 -1.794119,-1.794154 -6.5229,-8.247876 4.97739,-19.61823 -5.933415,-22.541772 -1.062704,-0.28475 -1.981172,-0.393722 -2.782776,-0.355017 z m -8.296651,30.445687 c 6.217733,3.6e-5 11.258192,5.040495 11.258228,11.258228 -3.6e-5,6.217732 -5.040496,11.258191 -11.258228,11.258227 -6.217732,-3.6e-5 -11.258192,-5.040495 -11.258228,-11.258227 3.6e-5,-6.217733 5.040495,-11.258192 11.258228,-11.258228 z"
         inkscape:path-effect="#path-effect8"
         inkscape:original-d="m 66.898242,11.498006 c -7.74884,0.374153 -4.560917,14.555398 -14.83372,17.307988 -11.335506,3.037339 -15.434235,-14.17171 -23.732401,-5.873544 -8.298167,8.298168 8.910883,12.397412 5.873543,23.732919 -3.03734,11.335506 -19.99031,6.280473 -16.95297,17.615979 3.03734,11.335506 15.191872,-1.518219 23.490039,6.779948 8.298166,8.298166 -4.556075,20.452183 6.779431,23.489522 11.335507,3.037339 6.280989,-13.915631 17.616496,-16.952971 11.335506,-3.037339 15.434235,14.17171 23.732401,5.873544 8.298167,-8.298167 -8.910883,-12.396895 -5.873543,-23.732402 3.03734,-11.335506 19.990312,-6.28099 16.95297,-17.616496 -3.03734,-11.335506 -15.191872,1.518736 -23.490039,-6.779431 -8.298166,-8.298166 4.556075,-20.452699 -6.779431,-23.490039 -1.062704,-0.28475 -1.981172,-0.393722 -2.782776,-0.355017 z M 58.601591,41.943693 A 11.258293,11.258293 0 0 1 69.859819,53.201921 11.258293,11.258293 0 0 1 58.601591,64.460148 11.258293,11.258293 0 0 1 47.343363,53.201921 11.258293,11.258293 0 0 1 58.601591,41.943693 Z"
         transform="matrix(0.52266614,0.45547321,-0.45547321,0.52266614,32.459091,52.344477)" />
      <path
         id="path8"
         style="font-variation-settings:normal;opacity:1;vector-effect:none;fill:#e67e80;fill-opacity:1;stroke:#252c32;stroke-width:1.82243;stroke-linecap:butt;stroke-linejoin:miter;stroke-miterlimit:4;stroke-dasharray:none;stroke-dashoffset:0;stroke-opacity:1;-inkscape-stroke:none;paint-order:normal;stop-color:#000000;stop-opacity:1"
         d="m 66.898242,11.498006 c -7.428553,0.358688 -4.805769,13.406663 -13.627153,16.90987 -0.652162,0.258991 -1.756371,0.554867 -2.450798,0.656658 -10.4043,1.525079 -14.500907,-14.119347 -22.48817,-6.132084 -7.987317,7.987318 7.657372,12.084404 6.132052,22.488894 -0.101787,0.694312 -0.397662,1.798544 -0.656723,2.45083 -3.881402,9.77292 -19.478297,5.49837 -16.554756,16.409174 2.923561,10.910877 14.294046,-0.58916 22.541937,5.934059 0.550397,0.435307 1.358753,1.243658 1.794119,1.794155 6.522898,8.24784 -4.97739,19.617716 5.933414,22.541256 10.910878,2.92356 6.636675,-12.673563 16.409884,-16.554835 0.652185,-0.259004 1.756416,-0.554885 2.450843,-0.656676 10.4043,-1.525079 14.500907,14.119347 22.48817,6.132084 7.987316,-7.987316 -7.657369,-12.083924 -6.132053,-22.488377 0.101788,-0.694312 0.397663,-1.798544 0.656723,-2.45083 3.881401,-9.772959 19.478299,-5.498886 16.554757,-16.409691 -2.923561,-10.910877 -14.294046,0.589638 -22.541936,-5.933544 -0.550398,-0.435305 -1.358754,-1.243656 -1.794119,-1.794154 -6.5229,-8.247876 4.97739,-19.61823 -5.933415,-22.541772 -1.062704,-0.28475 -1.981172,-0.393722 -2.782776,-0.355017 z m -8.296651,30.445687 c 6.217733,3.6e-5 11.258192,5.040495 11.258228,11.258228 -3.6e-5,6.217732 -5.040496,11.258191 -11.258228,11.258227 -6.217732,-3.6e-5 -11.258192,-5.040495 -11.258228,-11.258227 3.6e-5,-6.217733 5.040495,-11.258192 11.258228,-11.258228 z"
         inkscape:path-effect="#path-effect10"
         inkscape:original-d="m 66.898242,11.498006 c -7.74884,0.374153 -4.560917,14.555398 -14.83372,17.307988 -11.335506,3.037339 -15.434235,-14.17171 -23.732401,-5.873544 -8.298167,8.298168 8.910883,12.397412 5.873543,23.732919 -3.03734,11.335506 -19.99031,6.280473 -16.95297,17.615979 3.03734,11.335506 15.191872,-1.518219 23.490039,6.779948 8.298166,8.298166 -4.556075,20.452183 6.779431,23.489522 11.335507,3.037339 6.280989,-13.915631 17.616496,-16.952971 11.335506,-3.037339 15.434235,14.17171 23.732401,5.873544 8.298167,-8.298167 -8.910883,-12.396895 -5.873543,-23.732402 3.03734,-11.335506 19.990312,-6.28099 16.95297,-17.616496 -3.03734,-11.335506 -15.191872,1.518736 -23.490039,-6.779431 -8.298166,-8.298166 4.556075,-20.452699 -6.779431,-23.490039 -1.062704,-0.28475 -1.981172,-0.393722 -2.782776,-0.355017 z M 58.601591,41.943693 A 11.258293,11.258293 0 0 1 69.859819,53.201921 11.258293,11.258293 0 0 1 58.601591,64.460148 11.258293,11.258293 0 0 1 47.343363,53.201921 11.258293,11.258293 0 0 1 58.601591,41.943693 Z"
         transform="rotate(-32.993044,345.48587,-345.8224)" />
      <path
         id="path10"
         style="font-variation-settings:normal;opacity:1;vector-effect:none;fill:#a7c080;fill-opacity:1;stroke:#252c32;stroke-width:2.62871;stroke-linecap:butt;stroke-linejoin:miter;stroke-miterlimit:4;stroke-dasharray:none;stroke-dashoffset:0;stroke-opacity:1;-inkscape-stroke:none;paint-order:normal;stop-color:#000000;stop-opacity:1"
         d="m 66.898242,11.498006 c -7.428553,0.358688 -4.805769,13.406663 -13.627153,16.90987 -0.652162,0.258991 -1.756371,0.554867 -2.450798,0.656658 -10.4043,1.525079 -14.500907,-14.119347 -22.48817,-6.132084 -7.987317,7.987318 7.657372,12.084404 6.132052,22.488894 -0.101787,0.694312 -0.397662,1.798544 -0.656723,2.45083 -3.881402,9.77292 -19.478297,5.49837 -16.554756,16.409174 2.923561,10.910877 14.294046,-0.58916 22.541937,5.934059 0.550397,0.435307 1.358753,1.243658 1.794119,1.794155 6.522898,8.24784 -4.97739,19.617716 5.933414,22.541256 10.910878,2.92356 6.636675,-12.673563 16.409884,-16.554835 0.652185,-0.259004 1.756416,-0.554885 2.450843,-0.656676 10.4043,-1.525079 14.500907,14.119347 22.48817,6.132084 7.987316,-7.987316 -7.657369,-12.083924 -6.132053,-22.488377 0.101788,-0.694312 0.397663,-1.798544 0.656723,-2.45083 3.881401,-9.772959 19.478299,-5.498886 16.554757,-16.409691 -2.923561,-10.910877 -14.294046,0.589638 -22.541936,-5.933544 -0.550398,-0.435305 -1.358754,-1.243656 -1.794119,-1.794154 -6.5229,-8.247876 4.97739,-19.61823 -5.933415,-22.541772 -1.062704,-0.28475 -1.981172,-0.393722 -2.782776,-0.355017 z m -8.296651,30.445687 c 6.217733,3.6e-5 11.258192,5.040495 11.258228,11.258228 -3.6e-5,6.217732 -5.040496,11.258191 -11.258228,11.258227 -6.217732,-3.6e-5 -11.258192,-5.040495 -11.258228,-11.258227 3.6e-5,-6.217733 5.040495,-11.258192 11.258228,-11.258228 z"
         transform="matrix(0.30509721,0.62253629,-0.62253629,0.30509721,331.70883,12.472475)"
         inkscape:original-d="m 66.898242,11.498006 c -7.74884,0.374153 -4.560917,14.555398 -14.83372,17.307988 -11.335506,3.037339 -15.434235,-14.17171 -23.732401,-5.873544 -8.298167,8.298168 8.910883,12.397412 5.873543,23.732919 -3.03734,11.335506 -19.99031,6.280473 -16.95297,17.615979 3.03734,11.335506 15.191872,-1.518219 23.490039,6.779948 8.298166,8.298166 -4.556075,20.452183 6.779431,23.489522 11.335507,3.037339 6.280989,-13.915631 17.616496,-16.952971 11.335506,-3.037339 15.434235,14.17171 23.732401,5.873544 8.298167,-8.298167 -8.910883,-12.396895 -5.873543,-23.732402 3.03734,-11.335506 19.990312,-6.28099 16.95297,-17.616496 -3.03734,-11.335506 -15.191872,1.518736 -23.490039,-6.779431 -8.298166,-8.298166 4.556075,-20.452699 -6.779431,-23.490039 -1.062704,-0.28475 -1.981172,-0.393722 -2.782776,-0.355017 z M 58.601591,41.943693 A 11.258293,11.258293 0 0 1 69.859819,53.201921 11.258293,11.258293 0 0 1 58.601591,64.460148 11.258293,11.258293 0 0 1 47.343363,53.201921 11.258293,11.258293 0 0 1 58.601591,41.943693 Z"
         inkscape:path-effect="#path-effect12" />
    </g>
  </g>
</svg>
